<svg width="62" height="62" viewBox="0 0 62 62" fill="none" xmlns="http://www.w3.org/2000/svg">
<path d="M31.1347 0.0100098C25.0747 0.0100098 19.1508 1.807 14.1122 5.17374C9.07348 8.54047 5.14631 13.3257 2.82726 18.9244C0.50821 24.5231 -0.098559 30.6837 1.08368 36.6273C2.26592 42.5708 5.18407 48.0303 9.46912 52.3153C13.7542 56.6003 19.2136 59.5185 25.1572 60.7007C31.1007 61.883 37.2613 61.2762 42.86 58.9572C48.4587 56.6381 53.2439 52.7109 56.6107 47.6723C59.9774 42.6336 61.7744 36.7097 61.7744 30.6497C61.7656 22.5263 58.5347 14.738 52.7905 8.99388C47.0464 3.24972 39.2581 0.0187959 31.1347 0.0100098ZM31.1347 56.1828C26.0847 56.1828 21.1481 54.6854 16.9492 51.8797C12.7503 49.0741 9.4777 45.0864 7.54516 40.4208C5.61262 35.7553 5.10698 30.6214 6.09218 25.6685C7.07738 20.7155 9.50917 16.166 13.08 12.5951C16.6509 9.02424 21.2005 6.59244 26.1534 5.60724C31.1064 4.62204 36.2402 5.12768 40.9058 7.06022C45.5713 8.99276 49.5591 12.2654 52.3647 16.4643C55.1703 20.6632 56.6678 25.5998 56.6678 30.6497C56.6603 37.4193 53.9679 43.9094 49.1811 48.6962C44.3943 53.4829 37.9042 56.1754 31.1347 56.1828Z" fill="#0089D0"/>
<path d="M42.0962 21.1848L26.0282 37.2527L20.1734 31.398C19.6919 30.9329 19.0469 30.6755 18.3774 30.6814C17.708 30.6872 17.0676 30.9557 16.5942 31.4291C16.1208 31.9025 15.8522 32.5429 15.8464 33.2124C15.8406 33.8819 16.098 34.5268 16.5631 35.0084L24.223 42.6683C24.7018 43.147 25.3511 43.4159 26.0282 43.4159C26.7052 43.4159 27.3546 43.147 27.8334 42.6683L45.7066 24.7951C46.1717 24.3136 46.429 23.6686 46.4232 22.9991C46.4174 22.3297 46.1488 21.6893 45.6754 21.2159C45.202 20.7425 44.5616 20.4739 43.8922 20.4681C43.2227 20.4623 42.5777 20.7197 42.0962 21.1848Z" fill="#0089D0"/>
</svg>
