<svg width="24" height="24" viewBox="0 0 24 24" fill="none" xmlns="http://www.w3.org/2000/svg">
<rect width="24" height="24" rx="12" fill="#0089D0" fill-opacity="0.1"/>
<path fill-rule="evenodd" clip-rule="evenodd" d="M9.3303 14.3601L17.2503 6.29344C18.0503 5.48011 19.2636 6.42677 18.2636 7.49344C18.2636 7.49344 10.6636 17.0401 10.2636 17.5868C10.1441 17.7797 9.97719 17.9389 9.77886 18.0494C9.58053 18.1598 9.35729 18.2177 9.1303 18.2177C8.9033 18.2177 8.68006 18.1598 8.48173 18.0494C8.2834 17.9389 8.11654 17.7797 7.99696 17.5868L5.50363 13.3201C5.37692 13.0886 5.33712 12.8194 5.3914 12.5612C5.44568 12.3029 5.59047 12.0725 5.79966 11.9116C6.00884 11.7507 6.26864 11.6698 6.5322 11.6836C6.79575 11.6974 7.0457 11.8049 7.23696 11.9868L9.3303 14.3601Z" fill="#0089D0"/>
</svg>
